HIERARCHY
ROOT Hips
{
	OFFSET 0.00000 0.00000 0.00000
	CHANNELS 6 Xposition Yposition Zposition Zrotation Yrotation Xrotation 
	JOINT LHipJoint
	{
		OFFSET 0 0 0
		CHANNELS 3 Zrotation Yrotation Xrotation
		JOINT LeftHip
		{
			OFFSET 1.61328 -1.70571 0.84375
			CHANNELS 3 Zrotation Yrotation Xrotation
			JOINT LeftKnee
			{
				OFFSET 2.32400 -6.38513 0.00000
				CHANNELS 3 Zrotation Yrotation Xrotation
				JOINT LeftAnkle
				{
					OFFSET 2.58843 -7.11166 0.00000
					CHANNELS 3 Zrotation Yrotation Xrotation
					JOINT LeftToe
					{
						OFFSET 0.17200 -0.47257 2.47970
						CHANNELS 3 Zrotation Yrotation Xrotation
						End Site
						{
							OFFSET 0.00000 -0.00000 1.26912
						}
					}
				}
			}
		}
	}
	JOINT RHipJoint
	{
		OFFSET 0 0 0
		CHANNELS 3 Zrotation Yrotation Xrotation
		JOINT RightHip
		{
			OFFSET -1.49930 -1.70570 0.84375
			CHANNELS 3 Zrotation Yrotation Xrotation
			JOINT RightKnee
			{
				OFFSET -2.30458 -6.33178 0.00000
				CHANNELS 3 Zrotation Yrotation Xrotation
				JOINT RightAnkle
				{
					OFFSET -2.62261 -7.20556 0.00000
					CHANNELS 3 Zrotation Yrotation Xrotation
					JOINT RightToe
					{
						OFFSET -0.18709 -0.51403 2.51340
						CHANNELS 3 Zrotation Yrotation Xrotation
						End Site
						{
							OFFSET -0.00000 -0.00000 1.28858
						}
					}
				}
			}
		}
	}
	JOINT lowerback
	{
		OFFSET 0 0 0
		CHANNELS 3 Zrotation Yrotation Xrotation
		JOINT Chest
		{
			OFFSET -0.03798 2.19274 -0.19881
			CHANNELS 3 Zrotation Yrotation Xrotation
			JOINT Chest2
			{
				OFFSET -0.00024 2.19460 0.05248
				CHANNELS 3 Zrotation Yrotation Xrotation
				JOINT lowerneck
				{
					OFFSET 0 0 0
					CHANNELS 3 Zrotation Yrotation Xrotation
					JOINT Neck
					{
						OFFSET -0.00746 1.82323 0.17286
						CHANNELS 3 Zrotation Yrotation Xrotation
						JOINT Head
						{
							OFFSET 0.11826 1.82121 -0.27841
							CHANNELS 3 Zrotation Yrotation Xrotation
							End Site
							{
								OFFSET 0.03496 1.85543 -0.11495
							}
						}
					}
				}
				JOINT LeftCollar
				{
					OFFSET 0 0 0
					CHANNELS 3 Zrotation Yrotation Xrotation
					JOINT LeftShoulder
					{
						OFFSET 3.71926 0.78840 0.25473
CHANNELS 3 Zrotation Xrotation Yrotation
						JOINT LeftElbow
						{
OFFSET 0 -5.375870 0.000000
CHANNELS 3 Zrotation Xrotation Yrotation
							JOINT LeftWrist
							{
OFFSET 0 -3.359770 0.000000
CHANNELS 3 Zrotation Xrotation Yrotation
								JOINT lhand
								{
									OFFSET 0 0 0
CHANNELS 3 Zrotation Xrotation Yrotation
									JOINT LFingers
									{
OFFSET 0 -0.561860 0.000000
CHANNELS 3 Zrotation Xrotation Yrotation
										End Site
										{
OFFSET 0 -0.452990 0.000000
										}
									}
								}
								JOINT LThumb
								{
OFFSET 0 0.000000 0.000000
CHANNELS 3 Zrotation Xrotation Yrotation
									End Site
									{
OFFSET 0 -0.459900 0.459900
									}
								}
							}
						}
					}
				}
				JOINT RightCollar
				{
					OFFSET 0 0 0
					CHANNELS 3 Zrotation Yrotation Xrotation
					JOINT RightShoulder
					{
						OFFSET -3.65136 0.56074 0.01624
CHANNELS 3 Zrotation Xrotation Yrotation
						JOINT RightElbow
						{
OFFSET 0 -5.228190 0.000000
CHANNELS 3 Zrotation Xrotation Yrotation
							JOINT RightWrist
							{
OFFSET 0 -3.407640 0.000000
CHANNELS 3 Zrotation Xrotation Yrotation
								JOINT rhand
								{
									OFFSET 0 0 0
CHANNELS 3 Zrotation Xrotation Yrotation
									JOINT RFingers
									{
OFFSET 0 -0.583250 0.000000
CHANNELS 3 Zrotation Xrotation Yrotation
										End Site
										{
OFFSET 0 -0.470240 0.000000
										}
									}
								}
								JOINT RThumb
								{
OFFSET 0 0.000000 0.000000
CHANNELS 3 Zrotation Xrotation Yrotation
									End Site
									{
OFFSET 0 -0.477420 0.477420
									}
								}
							}
						}
					}
				}
			}
		}
	}
}
MOTION
Frames: 12
Frame Time: 0.008333333333333333
43.361422 16.303208 -7.872766 1076.944708 63.882779 1080.819733 0.000000 0.000000 0.000000 -18.581385 11.472976 -19.491078 4.080197 12.266346 36.680736 1.039581 5.664054 -22.097189 0.391401 -4.017353 -11.125507 0.000000 0.000000 0.000000 22.182578 -1.468826 -32.086127 -6.502357 -14.898011 46.965781 -2.303477 -7.070914 -31.872837 -0.863234 -5.914145 16.538491 -2.494398 -1.477575 9.320042 0.892699 -1.538517 13.131611 2.398298 -0.821782 8.856557 -9.760328 -6.555874 6.424100 11.613123 -9.214519 -1.189141 5.195200 -4.788885 -0.391223 0.000000 0.000000 0.000000 12.140338 -13.451453 -25.202975 26.241793 -37.446492 9.034276 18.217923 -15.501957 -17.792924 0.000000 0.000000 0.000000 -7.125000 0.000000 0.000000 -9.517019 48.414712 0.808517 0.000000 0.000000 0.000000 -8.722219 -5.219322 32.236747 -21.860595 -32.819094 -6.510097 -22.950068 -4.863597 -7.388407 0.000000 0.000000 0.000000 7.125000 0.000000 0.000000 2.809437 21.967692 1.556343
43.914604 16.189187 -7.535371 1082.249399 60.564251 1085.294224 0.000000 0.000000 0.000000 -20.814703 16.046693 -16.682695 3.759337 11.833040 35.143917 1.290909 4.714028 -23.630374 0.439935 -4.255978 -11.798045 0.000000 0.000000 0.000000 19.239799 1.116905 -29.654694 -7.100601 -15.416001 49.253704 -2.479173 -6.092653 -32.378222 -0.969896 -6.269939 17.569569 -0.832181 -1.940422 8.811930 0.530237 -2.111426 13.214940 1.077366 -0.944048 9.173877 -7.754457 -7.386311 7.645758 11.888072 -10.171501 -1.747300 5.026864 -5.319366 -0.736536 0.000000 0.000000 0.000000 12.020871 -13.663264 -27.983543 25.432756 -36.643056 8.546863 19.274033 -15.094602 -17.926360 0.000000 0.000000 0.000000 -7.125000 0.000000 0.000000 -8.551479 48.707694 0.787322 0.000000 0.000000 0.000000 -6.952077 -3.863280 28.851075 -20.204952 -30.888301 -5.636308 -22.773215 -3.160170 -7.596916 0.000000 0.000000 0.000000 7.125000 0.000000 0.000000 2.942223 21.753147 1.644403
44.422563 16.282282 -7.136116 1084.694290 55.702456 1089.024290 0.000000 0.000000 0.000000 -22.100269 17.580384 -16.174313 3.814840 11.909397 35.412876 1.038081 5.930639 -22.257229 0.665632 -5.217491 -14.529957 0.000000 0.000000 0.000000 17.734983 4.520048 -27.513231 -6.784231 -15.147471 48.053412 -2.519966 -4.633346 -31.902361 -0.999096 -6.360888 17.835165 -0.764193 -2.610106 7.912194 1.318724 -3.150509 12.426423 1.854281 -1.534258 8.865278 -8.711761 -6.920522 7.906220 12.245908 -9.622870 -2.030535 5.306933 -5.057494 -0.853496 0.000000 0.000000 0.000000 10.872378 -12.048034 -28.122071 26.113960 -37.321015 8.956674 17.108333 -15.576448 -17.438640 0.000000 0.000000 0.000000 -7.125000 0.000000 0.000000 -10.458239 47.894247 0.754533 0.000000 0.000000 0.000000 -8.224195 -3.780601 29.854886 -19.968933 -30.604837 -5.515513 -22.399703 -3.156414 -7.766467 0.000000 0.000000 0.000000 7.125000 0.000000 0.000000 3.217013 21.593425 1.810135
44.888392 16.321378 -6.841770 1083.960818 51.607880 1088.166110 0.000000 0.000000 0.000000 -19.649495 16.752133 -23.035240 7.370606 15.635473 50.261210 0.615514 4.669544 -17.255227 0.445508 -4.282426 -11.872630 0.000000 0.000000 0.000000 17.861482 4.916291 -24.210237 -6.319619 -14.731099 46.251459 -2.439446 -2.599485 -30.539012 -0.946806 -6.197018 17.357200 0.217936 -2.844053 8.599386 1.545991 -3.441764 13.047531 1.571766 -1.603772 9.148925 -8.537428 -6.919500 8.015044 12.667529 -9.634457 -1.413099 5.396025 -5.067468 -0.677907 0.000000 0.000000 0.000000 11.275741 -12.622587 -27.179719 26.762333 -37.951623 9.352625 20.077346 -14.820838 -17.141449 0.000000 0.000000 0.000000 -7.125000 0.000000 0.000000 -7.571201 48.013393 0.565817 0.000000 0.000000 0.000000 -8.320875 -4.613410 30.619081 -21.517733 -32.427708 -6.325310 -23.307446 -4.547729 -8.220210 0.000000 0.000000 0.000000 7.125000 0.000000 0.000000 2.568399 21.044352 1.476291
45.485918 16.435470 -6.780527 1081.696728 46.629259 1086.161052 0.000000 0.000000 0.000000 -16.500980 8.439417 -28.733430 7.058088 15.379793 49.092240 0.652881 -0.801055 -15.016852 0.527221 -4.652653 -12.920522 0.000000 0.000000 0.000000 18.107545 6.389254 -19.990305 -5.431783 -13.854015 42.655934 -2.183637 -1.516255 -28.524317 -0.850470 -5.881622 16.441407 0.946080 -2.460203 9.793005 1.591065 -2.899841 13.464976 1.251863 -1.277645 8.896170 -8.801865 -6.887766 7.733962 13.296459 -9.579952 -1.598216 5.621377 -5.050177 -0.649487 0.000000 0.000000 0.000000 10.522024 -13.413953 -29.021354 25.078929 -36.284531 8.336577 19.913093 -13.059400 -17.324386 0.000000 0.000000 0.000000 -7.125000 0.000000 0.000000 -7.775692 48.179439 0.613339 0.000000 0.000000 0.000000 -8.524853 -4.973868 30.512026 -21.681922 -32.615740 -6.413577 -23.050944 -4.769098 -8.311907 0.000000 0.000000 0.000000 7.125000 0.000000 0.000000 2.756235 20.962629 1.589570
46.330632 16.473576 -6.924506 1078.556928 37.555033 1083.516928 0.000000 0.000000 0.000000 -11.055393 -3.565396 -24.655750 3.197056 11.007030 32.304084 0.178924 -9.714995 -9.534791 0.768187 -5.594577 -15.613066 0.000000 0.000000 0.000000 17.905658 9.136986 -16.354124 -4.769354 -13.119237 39.816472 -1.786408 0.618058 -25.109732 -0.593868 -4.933387 13.718778 0.567793 -1.488091 11.594822 1.065780 -1.625499 13.697835 0.908221 -0.676855 8.120627 -8.545083 -6.932701 7.517465 13.210818 -9.617752 -1.586168 5.544091 -5.065368 -0.623272 0.000000 0.000000 0.000000 10.920661 -12.364281 -28.910541 25.340679 -36.550133 8.491955 20.248743 -13.109304 -17.170574 0.000000 0.000000 0.000000 -7.125000 0.000000 0.000000 -7.416098 48.068465 0.564291 0.000000 0.000000 0.000000 -8.697530 -4.476843 31.011530 -22.984137 -34.071442 -7.129433 -23.160926 -5.481022 -8.350266 0.000000 0.000000 0.000000 7.125000 0.000000 0.000000 2.677776 20.913596 1.547173
47.351145 16.394803 -7.184700 1076.746845 26.488746 1082.189349 0.000000 0.000000 0.000000 -12.523289 0.838898 -24.340857 3.923397 12.057690 35.936383 0.372555 -5.601597 -10.961065 0.106521 -2.103943 -5.792965 0.000000 0.000000 0.000000 15.733143 12.491030 -14.447167 -4.410588 -12.687502 38.209832 -1.420390 4.347152 -21.528518 -0.276770 -3.383281 9.347822 -1.479843 -1.074698 12.170118 0.243149 -1.252070 14.066798 1.158540 -0.673331 8.256392 -8.624170 -6.873836 8.040724 13.111971 -9.633605 -0.957790 5.534800 -5.079576 -0.524685 0.000000 0.000000 0.000000 11.707285 -13.190426 -25.710222 22.599980 -33.648340 6.915419 21.169680 -12.299335 -17.108176 0.000000 0.000000 0.000000 -7.125000 0.000000 0.000000 -6.523779 48.137809 0.507032 0.000000 0.000000 0.000000 -7.189635 -4.374591 29.902393 -23.531363 -34.664708 -7.438369 -23.703375 -5.784069 -8.300519 0.000000 0.000000 0.000000 7.125000 0.000000 0.000000 2.284399 20.929748 1.318630
48.169983 16.493874 -7.467345 1075.086377 18.630192 1083.574374 0.000000 0.000000 0.000000 -14.400777 5.802686 -27.139541 4.132686 12.334917 36.927251 0.511191 -2.998661 -12.813112 0.019341 -0.898068 -2.468350 0.000000 0.000000 0.000000 15.118973 11.355103 -16.126920 -3.959682 -12.106523 36.109880 -1.224917 3.408048 -20.070883 -0.153269 -2.522478 6.951986 -2.269700 -1.473518 11.996735 0.398588 -1.934244 13.530599 1.793020 -1.129038 7.802945 -9.154806 -6.619955 7.813935 13.387612 -9.279279 -1.766349 5.715879 -4.916712 -0.725700 0.000000 0.000000 0.000000 12.818819 -14.240729 -24.843272 24.286213 -35.465091 7.872189 21.293234 -13.160523 -17.586380 0.000000 0.000000 0.000000 -7.125000 0.000000 0.000000 -6.526738 48.657400 0.591093 0.000000 0.000000 0.000000 -6.408029 -3.454223 31.045669 -22.120874 -33.113303 -6.651828 -21.769763 -3.960550 -7.904378 0.000000 0.000000 0.000000 7.125000 0.000000 0.000000 3.676710 21.483987 2.078903
48.702535 16.543740 -7.790114 1074.055142 9.506568 1084.773439 0.000000 0.000000 0.000000 -15.891591 8.050560 -28.220233 4.082485 12.269362 36.691657 0.625732 2.853312 -16.250751 0.030580 -1.128239 -3.101736 0.000000 0.000000 0.000000 17.936743 6.090242 -18.736525 -4.691979 -13.028134 39.474203 -1.346380 -1.151176 -22.374010 -0.348961 -3.795463 10.501983 -2.487491 -0.717680 11.848977 0.450387 -1.028868 13.754752 1.917812 -0.739668 8.101147 -8.908714 -6.593439 8.146112 12.801476 -9.307491 -0.962498 5.492321 -4.915490 -0.580816 0.000000 0.000000 0.000000 13.789468 -15.846182 -24.034530 28.097583 -39.205841 10.185359 23.221874 -16.081338 -17.459894 0.000000 0.000000 0.000000 -7.125000 0.000000 0.000000 -4.637729 48.818181 0.437585 0.000000 0.000000 0.000000 -6.239942 -3.634088 30.873032 -22.101709 -33.091696 -6.641326 -23.876252 -5.056814 -9.185145 0.000000 0.000000 0.000000 7.125000 0.000000 0.000000 2.189144 19.955447 1.311426
49.045311 16.536148 -8.092266 1074.094524 -0.464486 1085.894524 0.000000 0.000000 0.000000 -17.608448 10.010086 -29.273640 4.094156 12.284688 36.746646 0.596744 8.152508 -19.774440 0.018509 -0.877570 -2.411968 0.000000 0.000000 0.000000 20.874679 -0.777710 -21.362131 -5.640459 -14.070592 43.520994 -1.913671 -4.792721 -28.206677 -0.458927 -4.344881 12.049103 -2.814444 -0.349638 11.482235 0.330127 -0.644211 13.554102 1.947020 -0.605490 8.056441 -8.437059 -6.618376 8.310343 12.562324 -9.306820 -1.015657 5.353578 -4.917886 -0.656361 0.000000 0.000000 0.000000 13.703977 -14.603282 -25.317637 28.062265 -39.173413 10.163028 22.400958 -16.083269 -17.624249 0.000000 0.000000 0.000000 -7.125000 0.000000 0.000000 -5.470072 48.865935 0.522941 0.000000 0.000000 0.000000 -6.708550 -3.866032 31.351746 -23.234892 -34.344636 -7.270393 -24.371132 -5.767944 -8.834036 0.000000 0.000000 0.000000 7.125000 0.000000 0.000000 1.821271 20.299560 1.076812
49.154266 16.486995 -8.364749 1074.903422 -9.046207 1086.264825 0.000000 0.000000 0.000000 -19.287438 12.156734 -30.504557 4.212747 12.438263 37.300494 0.548511 12.000456 -23.015336 0.001355 -0.239099 -0.656911 0.000000 0.000000 0.000000 24.044507 -5.864480 -22.074510 -5.364054 -13.782015 42.371955 -2.941225 -7.559885 -35.688053 -0.149202 -2.482732 6.842065 -2.571081 -0.510999 10.985751 0.141600 -0.903094 13.445349 1.610762 -0.733749 8.209235 -8.225121 -6.647929 8.320978 12.681482 -9.346473 -0.771941 5.350723 -4.938875 -0.587480 0.000000 0.000000 0.000000 13.561067 -14.531333 -25.923655 26.393813 -37.594943 9.126866 20.623931 -15.331429 -17.857954 0.000000 0.000000 0.000000 -7.125000 0.000000 0.000000 -7.240595 48.839678 0.689007 0.000000 0.000000 0.000000 -6.255091 -3.488935 31.297218 -23.258721 -34.370512 -7.283855 -23.520385 -5.094957 -8.423075 0.000000 0.000000 0.000000 7.125000 0.000000 0.000000 2.420176 20.809555 1.403705
49.080369 16.411513 -8.633839 1076.751736 -15.418012 1085.747112 0.000000 0.000000 0.000000 -21.131704 14.171329 -31.786348 4.426390 12.707202 38.281940 0.478031 14.544929 -25.173891 0.000792 0.178472 0.490361 0.000000 0.000000 0.000000 22.290672 -2.676392 -21.055215 -4.920534 -13.293682 40.478182 -2.943924 -6.269045 -35.050056 -0.456327 -4.333412 12.016647 -2.612116 -1.148503 10.433542 0.579853 -1.823725 13.594606 2.110691 -1.255686 8.760213 -8.875031 -6.428354 8.251621 12.460225 -9.124574 -0.623039 5.380246 -4.814487 -0.536206 0.000000 0.000000 0.000000 12.616604 -14.647310 -25.866345 26.958739 -38.139802 9.473639 20.347109 -15.614206 -17.686765 0.000000 0.000000 0.000000 -7.125000 0.000000 0.000000 -7.459536 48.619929 0.669498 0.000000 0.000000 0.000000 -7.181490 -3.695970 31.241301 -21.821906 -32.775128 -6.489227 -23.869661 -3.591361 -7.661587 0.000000 0.000000 0.000000 7.125000 0.000000 0.000000 2.145713 21.613655 1.205289
